<?xml version="1.0" encoding="UTF-8"?>
<svg id="Layer_2" data-name="Layer 2" xmlns="http://www.w3.org/2000/svg" viewBox="0 0 250 213.17">
  <defs>
    <style>
      .cls-1 {
        fill: #3f3f3f;
      }

      .cls-2 {
        fill: #232323;
      }
    </style>
  </defs>
  <g id="Layer_1-2" data-name="Layer 1">
    <g>
      <path class="cls-2" d="M79.25,104.94c-13.17-9.83-34.13,1.21-43.2,14.91l-30.75,46.38c-18.32,27.68,14.75,60.64,41.11,40.96l59.81-44.63,21.96-17.19h0s-48.92-40.43-48.92-40.43Z"/>
      <path class="cls-1" d="M244.71,166.24l-30.75-46.38c-9.07-13.7-30.36-22.65-43.53-12.82l-49.43,37.5h0l22.79,18.03,59.81,44.63c26.36,19.68,59.43-13.28,41.11-40.96Z"/>
      <path d="M213.94,119.85c-9.07-13.7-27.79-16.96-40.95-7.13l-47.89,35.06-48.1-35.06c-13.16-9.83-31.88-6.57-40.95,7.13L110.07,8.03C113.4,3.01,118.62.35,123.95.03c.7-.04,1.39-.04,2.08,0,5.35.32,10.57,2.98,13.89,8l74.02,111.82Z"/>
    </g>
  </g>
</svg>