<?xml version="1.0" encoding="UTF-8"?><svg id="Layer_2" xmlns="http://www.w3.org/2000/svg" viewBox="0 0 293.5 167.3"><defs><style>.cls-1{fill:#3f3f3f;}.cls-2{fill:#232323;}</style></defs><g id="Layer_1-2"><path d="M0,155.74v-6.55l20.2-24.94.21,1.07-1.71-2.24,1.12.96H.69v-7.19h29.89v6.55l-20.3,24.94-.21-1.17,1.81,2.4-1.28-1.01h19.98v7.19H0Z"/><path d="M47.58,156.8c-2.49,0-4.68-.43-6.58-1.28s-3.49-2.01-4.77-3.46c-1.28-1.46-2.25-3.08-2.9-4.88-.66-1.79-.99-3.63-.99-5.51v-1.07c0-1.95.33-3.83.99-5.62.66-1.79,1.62-3.4,2.88-4.82s2.82-2.55,4.69-3.38c1.87-.83,3.99-1.25,6.37-1.25,3.12,0,5.76.7,7.91,2.1,2.15,1.4,3.79,3.23,4.93,5.49,1.14,2.26,1.71,4.72,1.71,7.38v2.88h-25.84v-4.85h20.67l-2.82,2.29c0-1.78-.24-3.28-.72-4.5-.48-1.23-1.21-2.17-2.18-2.82-.98-.66-2.19-.99-3.65-.99s-2.75.33-3.78.99c-1.03.66-1.81,1.63-2.34,2.93-.53,1.3-.8,2.89-.8,4.77,0,1.74.25,3.26.75,4.56.5,1.3,1.28,2.3,2.34,3.01,1.07.71,2.45,1.07,4.16,1.07,1.56,0,2.84-.3,3.84-.91.99-.6,1.67-1.35,2.02-2.24h7.83c-.43,1.95-1.26,3.7-2.5,5.22-1.24,1.53-2.81,2.73-4.69,3.6-1.88.87-4.05,1.31-6.5,1.31Z"/><path d="M70.66,155.1l-9.01-28.56h8.63l8.47,28.56h-8.1ZM65.01,167.3v-7.25h6.07c.92,0,1.71-.12,2.34-.35.64-.23,1.15-.61,1.54-1.15s.71-1.26.96-2.18l7.14-29.84h8.15l-8.15,31.55c-.57,2.27-1.36,4.09-2.37,5.46-1.01,1.37-2.36,2.33-4.05,2.9-1.69.57-3.83.85-6.42.85h-5.22ZM74.17,155.1v-6.66h6.18v6.66h-6.18Z"/><path d="M101.88,156.48c-2.1,0-3.93-.37-5.51-1.12-1.58-.75-2.82-1.82-3.7-3.22-.89-1.4-1.33-3.08-1.33-5.04,0-2.13.55-3.88,1.65-5.25,1.1-1.37,2.65-2.38,4.64-3.04s4.28-.99,6.87-.99h6.23v4.74h-6.29c-1.49,0-2.64.37-3.44,1.09-.8.73-1.2,1.71-1.2,2.96,0,1.17.4,2.12,1.2,2.85s1.95,1.09,3.44,1.09c.96,0,1.82-.17,2.58-.51.76-.34,1.39-.91,1.89-1.73.5-.82.78-1.95.85-3.41l2.02,2.13c-.18,2.02-.67,3.73-1.46,5.12-.8,1.39-1.9,2.45-3.3,3.2-1.4.75-3.12,1.12-5.14,1.12ZM111.21,155.74v-8.63h-1.44v-9.33c0-1.53-.36-2.66-1.07-3.38-.71-.73-1.85-1.09-3.41-1.09-.78,0-1.81.02-3.09.05-1.28.04-2.6.08-3.97.13-1.37.05-2.6.12-3.7.19v-7.19c.85-.07,1.83-.14,2.93-.21,1.1-.07,2.24-.12,3.41-.16,1.17-.04,2.27-.05,3.3-.05,2.98,0,5.5.43,7.54,1.28,2.04.85,3.6,2.14,4.66,3.86,1.07,1.72,1.6,3.93,1.6,6.63v17.9h-6.77Z"/><path d="M134.01,155.74v-38.9h5.22v38.9h-5.22ZM138.17,138.74v-4.69h23.23v4.69h-23.23ZM160.34,155.74v-38.9h5.22v38.9h-5.22Z"/><path d="M186.08,156.7c-2.49,0-4.64-.43-6.45-1.28s-3.29-1.98-4.42-3.38c-1.14-1.4-1.98-2.98-2.53-4.72s-.83-3.52-.83-5.33v-.96c0-1.85.28-3.64.83-5.38.55-1.74,1.39-3.31,2.53-4.72,1.14-1.4,2.58-2.52,4.34-3.36,1.76-.83,3.83-1.25,6.21-1.25,3.09,0,5.64.67,7.65,2,2.01,1.33,3.5,3.05,4.48,5.14.98,2.1,1.47,4.33,1.47,6.71v2.29h-25.26v-3.84h21.53l-1.17,2.08c0-2.03-.32-3.77-.96-5.25-.64-1.47-1.6-2.62-2.88-3.44-1.28-.82-2.9-1.23-4.85-1.23s-3.7.46-5.04,1.38c-1.33.92-2.33,2.19-2.98,3.78-.66,1.6-.99,3.45-.99,5.54s.33,3.85.99,5.46c.66,1.62,1.68,2.9,3.06,3.84,1.39.94,3.14,1.41,5.28,1.41,2.24,0,4.06-.5,5.46-1.49,1.4-.99,2.25-2.15,2.53-3.46h4.8c-.39,1.95-1.17,3.64-2.34,5.06-1.17,1.42-2.65,2.5-4.42,3.25s-3.78,1.12-6.02,1.12Z"/><path d="M213.41,156.48c-2.13,0-3.97-.37-5.52-1.09s-2.74-1.79-3.57-3.17c-.83-1.39-1.25-3.05-1.25-5.01s.45-3.71,1.36-5.06c.91-1.35,2.23-2.37,3.97-3.06,1.74-.69,3.84-1.04,6.29-1.04h7.73v3.84h-7.94c-2.06,0-3.64.5-4.74,1.49-1.1,1-1.65,2.27-1.65,3.84s.55,2.82,1.65,3.78c1.1.96,2.68,1.44,4.74,1.44,1.21,0,2.36-.22,3.46-.67,1.1-.44,2.02-1.19,2.74-2.24.73-1.05,1.13-2.5,1.2-4.34l1.39,2.03c-.18,2.02-.67,3.72-1.46,5.09-.8,1.37-1.9,2.41-3.3,3.12-1.4.71-3.1,1.07-5.09,1.07ZM222.74,155.74v-8.53h-.85v-9.86c0-1.95-.51-3.43-1.52-4.42-1.01-.99-2.5-1.49-4.45-1.49-1.1,0-2.24.02-3.41.05-1.17.04-2.29.07-3.36.11-1.07.04-1.99.09-2.77.16v-4.48c.78-.07,1.61-.13,2.48-.19.87-.05,1.77-.09,2.69-.11.92-.02,1.81-.03,2.66-.03,2.91,0,5.29.35,7.14,1.04,1.85.69,3.21,1.82,4.1,3.38.89,1.56,1.33,3.68,1.33,6.34v18.01h-4.05Z"/><path d="M230.41,120.89v-4.05h9.06v4.05h-9.06ZM234.35,155.74v-38.9h5.12v38.9h-5.12Z"/><path d="M244.05,131.12v-3.84h19.61v3.84h-19.61ZM259.29,156.06c-2.13,0-3.97-.3-5.51-.91s-2.74-1.64-3.57-3.12c-.83-1.47-1.25-3.47-1.25-6v-27.39h4.9v28.03c0,1.53.42,2.71,1.25,3.54.83.83,2.02,1.25,3.54,1.25h5.01v4.58h-4.37Z"/><path d="M268.77,155.74v-38.9h5.12v23.23h-1.28c0-2.81.36-5.23,1.09-7.27.73-2.04,1.86-3.61,3.38-4.72,1.53-1.1,3.48-1.65,5.86-1.65h.21c3.41,0,5.99,1.13,7.73,3.38,1.74,2.26,2.61,5.48,2.61,9.67v16.25h-5.12v-17.32c0-2.31-.65-4.1-1.95-5.38-1.3-1.28-2.98-1.92-5.04-1.92-2.27,0-4.09.75-5.46,2.26-1.37,1.51-2.05,3.49-2.05,5.94v16.41h-5.12Z"/><path class="cls-2" d="M126.26,48.27c-5.77-4.31-14.95-1.74-18.93,4.27l-13.48,20.33c-8.03,12.13,6.47,26.58,18.02,17.96l26.22-19.56,9.02-6.73h0l-20.85-16.26Z"/><path class="cls-1" d="M198.8,72.87l-13.48-20.33c-3.98-6.01-13.52-8.97-19.29-4.66l-20.56,16.6h0l9.09,6.79,26.22,19.56c11.56,8.63,26.05-5.82,18.02-17.96Z"/><path d="M185.31,52.54c-3.98-6.01-12.18-7.43-17.95-3.13l-21.04,15.7-21.04-15.7c-5.77-4.31-13.98-2.88-17.95,3.13L139.78,3.52c1.46-2.2,3.75-3.37,6.08-3.51.31-.02.61-.02.91,0,2.35.14,4.63,1.31,6.09,3.51l32.45,49.02Z"/></g></svg>