<?xml version="1.0" encoding="UTF-8"?><svg id="Layer_2" xmlns="http://www.w3.org/2000/svg" viewBox="0 0 342.41 58.87"><defs><style>.cls-1{fill:#112851;}</style></defs><g id="Layer_1-2"><path class="cls-1" d="M0,45.38v-7.65L23.56,8.64l.25,1.24-1.99-2.61,1.31,1.12H.81V0h34.88v7.65l-23.69,29.09-.25-1.37,2.11,2.8-1.49-1.18h23.31v8.39H0Z"/><path class="cls-1" d="M55.52,46.62c-2.9,0-5.46-.5-7.68-1.49-2.22-.99-4.07-2.34-5.56-4.04-1.49-1.7-2.62-3.6-3.39-5.69-.77-2.09-1.15-4.24-1.15-6.43v-1.24c0-2.28.38-4.47,1.15-6.56.77-2.09,1.89-3.97,3.36-5.63,1.47-1.66,3.29-2.97,5.47-3.95,2.18-.97,4.65-1.46,7.43-1.46,3.65,0,6.72.82,9.23,2.46,2.51,1.64,4.42,3.77,5.75,6.4,1.33,2.63,1.99,5.5,1.99,8.61v3.36h-30.15v-5.66h24.12l-3.29,2.67c0-2.07-.28-3.82-.84-5.25-.56-1.43-1.41-2.53-2.55-3.29-1.14-.77-2.56-1.15-4.26-1.15s-3.21.38-4.41,1.15c-1.2.77-2.11,1.91-2.74,3.42-.62,1.51-.93,3.37-.93,5.56,0,2.03.29,3.8.87,5.32.58,1.51,1.49,2.68,2.74,3.51s2.86,1.24,4.85,1.24c1.82,0,3.32-.35,4.48-1.06,1.16-.7,1.95-1.58,2.36-2.61h9.14c-.5,2.28-1.47,4.31-2.92,6.09-1.45,1.78-3.27,3.18-5.47,4.2-2.2,1.01-4.72,1.52-7.58,1.52Z"/><path class="cls-1" d="M82.43,44.64l-10.51-33.32h10.07l9.88,33.32h-9.45ZM75.84,58.87v-8.46h7.09c1.08,0,1.99-.13,2.74-.4.75-.27,1.35-.71,1.8-1.34.46-.62.83-1.47,1.12-2.55l8.33-34.81h9.51l-9.51,36.8c-.66,2.65-1.59,4.78-2.77,6.37-1.18,1.59-2.76,2.72-4.72,3.39-1.97.66-4.47,1-7.49,1h-6.09ZM86.54,44.64v-7.77h7.21v7.77h-7.21Z"/><path class="cls-1" d="M118.86,46.25c-2.45,0-4.59-.43-6.43-1.31-1.84-.87-3.29-2.12-4.32-3.76-1.04-1.64-1.55-3.59-1.55-5.88,0-2.49.64-4.53,1.93-6.12,1.28-1.59,3.09-2.78,5.41-3.54,2.32-.77,4.99-1.15,8.02-1.15h7.27v5.53h-7.34c-1.74,0-3.08.43-4.01,1.27-.93.85-1.4,2-1.4,3.45,0,1.37.47,2.48,1.4,3.33.93.85,2.27,1.27,4.01,1.27,1.12,0,2.12-.2,3.02-.59.89-.39,1.63-1.07,2.21-2.02.58-.95.91-2.28.99-3.98l2.36,2.49c-.21,2.36-.78,4.35-1.71,5.97-.93,1.62-2.22,2.86-3.85,3.73-1.64.87-3.64,1.31-6,1.31ZM129.74,45.38v-10.07h-1.68v-10.88c0-1.78-.42-3.1-1.24-3.95-.83-.85-2.16-1.27-3.98-1.27-.91,0-2.11.02-3.61.06-1.49.04-3.04.09-4.63.16-1.6.06-3.04.14-4.32.22v-8.39c.99-.08,2.13-.17,3.42-.25,1.28-.08,2.61-.15,3.98-.19s2.65-.06,3.85-.06c3.48,0,6.41.5,8.8,1.49,2.38.99,4.2,2.5,5.44,4.51,1.24,2.01,1.87,4.59,1.87,7.74v20.89h-7.9Z"/><path class="cls-1" d="M156.35,45.38V0h6.09v45.38h-6.09ZM161.2,25.55v-5.47h27.1v5.47h-27.1ZM187.06,45.38V0h6.09v45.38h-6.09Z"/><path class="cls-1" d="M217.09,46.5c-2.9,0-5.41-.5-7.52-1.49-2.11-.99-3.83-2.31-5.16-3.95-1.33-1.64-2.31-3.47-2.95-5.5-.64-2.03-.96-4.1-.96-6.22v-1.12c0-2.15.32-4.25.96-6.28.64-2.03,1.63-3.86,2.95-5.5,1.33-1.64,3.01-2.94,5.07-3.92,2.05-.97,4.46-1.46,7.24-1.46,3.61,0,6.58.78,8.92,2.33,2.34,1.55,4.08,3.55,5.22,6,1.14,2.45,1.71,5.06,1.71,7.83v2.67h-29.47v-4.48h25.12l-1.37,2.42c0-2.36-.37-4.4-1.12-6.12s-1.87-3.06-3.36-4.01c-1.49-.95-3.38-1.43-5.66-1.43s-4.32.54-5.88,1.62c-1.55,1.08-2.71,2.55-3.48,4.41-.77,1.86-1.15,4.02-1.15,6.46s.38,4.49,1.15,6.37c.77,1.89,1.96,3.38,3.57,4.48,1.62,1.1,3.67,1.65,6.15,1.65,2.61,0,4.73-.58,6.37-1.74,1.64-1.16,2.62-2.51,2.95-4.04h5.59c-.46,2.28-1.37,4.25-2.74,5.91-1.37,1.66-3.09,2.92-5.16,3.79-2.07.87-4.41,1.31-7.03,1.31Z"/><path class="cls-1" d="M248.98,46.25c-2.49,0-4.63-.42-6.43-1.27-1.8-.85-3.19-2.08-4.17-3.7-.97-1.62-1.46-3.56-1.46-5.84s.53-4.33,1.59-5.91c1.06-1.57,2.6-2.77,4.63-3.57,2.03-.81,4.48-1.21,7.34-1.21h9.01v4.48h-9.26c-2.4,0-4.25.58-5.53,1.74-1.29,1.16-1.93,2.65-1.93,4.48s.64,3.29,1.93,4.41c1.28,1.12,3.13,1.68,5.53,1.68,1.41,0,2.76-.26,4.04-.78,1.28-.52,2.35-1.39,3.2-2.61.85-1.22,1.31-2.91,1.4-5.07l1.62,2.36c-.21,2.36-.78,4.34-1.71,5.94-.93,1.6-2.22,2.81-3.85,3.64-1.64.83-3.62,1.24-5.94,1.24ZM259.86,45.38v-9.95h-.99v-11.5c0-2.28-.59-4-1.77-5.16-1.18-1.16-2.91-1.74-5.19-1.74-1.29,0-2.61.02-3.98.06-1.37.04-2.67.08-3.92.12-1.24.04-2.32.1-3.23.19v-5.22c.91-.08,1.88-.16,2.89-.22,1.02-.06,2.06-.1,3.14-.12,1.08-.02,2.11-.03,3.11-.03,3.4,0,6.17.4,8.33,1.21,2.15.81,3.75,2.12,4.79,3.95,1.04,1.82,1.55,4.29,1.55,7.4v21.01h-4.72Z"/><path class="cls-1" d="M268.81,4.72V0h10.57v4.72h-10.57ZM273.41,45.38V0h5.97v45.38h-5.97Z"/><path class="cls-1" d="M284.72,16.66v-4.48h22.88v4.48h-22.88ZM302.5,45.75c-2.49,0-4.63-.35-6.43-1.06s-3.19-1.92-4.17-3.64c-.97-1.72-1.46-4.05-1.46-6.99V2.11h5.72v32.7c0,1.78.49,3.16,1.46,4.13.97.97,2.35,1.46,4.13,1.46h5.84v5.35h-5.1Z"/><path class="cls-1" d="M313.57,45.38V0h5.97v27.1h-1.49c0-3.27.42-6.1,1.27-8.49.85-2.38,2.17-4.22,3.95-5.5,1.78-1.28,4.06-1.93,6.84-1.93h.25c3.98,0,6.98,1.32,9.01,3.95,2.03,2.63,3.05,6.39,3.05,11.28v18.96h-5.97v-20.2c0-2.69-.76-4.79-2.27-6.28-1.51-1.49-3.47-2.24-5.88-2.24-2.65,0-4.78.88-6.37,2.64-1.6,1.76-2.39,4.07-2.39,6.93v19.15h-5.97Z"/></g></svg>