<?xml version="1.0" encoding="UTF-8"?>
<svg id="Layer_2" data-name="Layer 2" xmlns="http://www.w3.org/2000/svg" viewBox="0 0 250 213.17">
  <defs>
    <style>
      .cls-1 {
        fill: #fff;
      }

      .cls-2 {
        fill: #e2e2e2;
      }

      .cls-3 {
        fill: #b2b2b2;
      }
    </style>
  </defs>
  <g id="Layer_1-2" data-name="Layer 1">
    <g>
      <path class="cls-2" d="M77,112.72c-13.17-9.83-31.89-6.57-40.96,7.13l-30.75,46.38c-18.32,27.68,14.75,60.64,41.11,40.96l59.81-44.63,18.79-14.02h0s-47.99-35.82-47.99-35.82Z"/>
      <path class="cls-3" d="M244.71,166.24l-30.75-46.38c-9.07-13.7-27.79-16.96-40.96-7.13l-47.99,35.82h0s18.79,14.02,18.79,14.02l59.81,44.63c26.36,19.68,59.43-13.28,41.11-40.96Z"/>
      <path class="cls-1" d="M213.94,119.85c-9.07-13.7-27.79-16.96-40.95-7.13l-47.99,35.81-48-35.81c-13.16-9.83-31.88-6.57-40.95,7.13L110.07,8.03C113.4,3.01,118.62.35,123.95.03c.7-.04,1.39-.04,2.08,0,5.35.32,10.57,2.98,13.89,8l74.02,111.82Z"/>
    </g>
  </g>
</svg>